<?xml version="1.0" encoding="utf-8"?>
<!-- Generator: Adobe Illustrator 24.0.1, SVG Export Plug-In . SVG Version: 6.00 Build 0)  -->
<svg version="1.1" id="Layer_1" xmlns="http://www.w3.org/2000/svg" xmlns:xlink="http://www.w3.org/1999/xlink" x="0px" y="0px"
	 viewBox="0 0 580.06 78.38" style="enable-background:new 0 0 580.06 78.38;" xml:space="preserve">
<style type="text/css">
	.st0{fill:#5170B5;}
</style>
<path class="st0" d="M10.94,55.29c-1.93,0-3.31-0.64-4.14-1.93C5.98,52.07,6,50.49,6.87,48.6L24.54,9.89
	c0.74-1.56,1.61-2.7,2.62-3.42c1.01-0.71,2.18-1.07,3.52-1.07c1.33,0,2.51,0.36,3.52,1.07c1.01,0.71,1.86,1.85,2.55,3.42l17.8,38.71
	c0.87,1.93,0.91,3.53,0.1,4.8c-0.81,1.27-2.1,1.9-3.9,1.9c-1.56,0-2.77-0.37-3.62-1.1c-0.85-0.74-1.6-1.89-2.24-3.45l-2.9-6.62
	h-22.7l-2.83,6.62c-0.69,1.61-1.43,2.77-2.21,3.48C13.47,54.94,12.37,55.29,10.94,55.29z M30.54,17.41l-7.66,18.35h15.59l-7.8-18.35
	H30.54z"/>
<path class="st0" d="M63.87,55.29c-3.5,0-5.24-1.77-5.24-5.31V25.49c0-3.5,1.7-5.24,5.11-5.24c3.4,0,5.11,1.75,5.11,5.24v0.28
	c1.15-1.84,2.69-3.24,4.62-4.21c1.93-0.97,4.09-1.45,6.49-1.45c4,0,6.99,1.16,8.97,3.48c1.98,2.32,2.97,5.9,2.97,10.73v15.66
	c0,3.54-1.75,5.31-5.24,5.31c-1.66,0-2.93-0.46-3.83-1.38c-0.9-0.92-1.35-2.23-1.35-3.93V34.8c0-2.35-0.44-4.04-1.31-5.07
	c-0.87-1.04-2.16-1.55-3.86-1.55c-2.21,0-3.97,0.69-5.28,2.07c-1.31,1.38-1.97,3.22-1.97,5.52v14.21
	C69.04,53.52,67.32,55.29,63.87,55.29z"/>
<path class="st0" d="M129.73,28.35c-1.5-2.65-3.59-4.68-6.28-6.11c-2.69-1.42-5.86-2.14-9.49-2.14s-6.8,0.72-9.49,2.14
	c-2.69,1.43-4.77,3.46-6.24,6.11c-1.48,2.64-2.21,5.76-2.21,9.35c0,3.63,0.73,6.77,2.21,9.42c1.47,2.64,3.55,4.69,6.24,6.14
	s5.86,2.17,9.49,2.17s6.8-0.72,9.49-2.17s4.78-3.5,6.28-6.14c1.49-2.65,2.24-5.79,2.24-9.42C131.97,34.11,131.22,30.99,129.73,28.35
	z M110.43,23.55c0.69-0.8,1.72-1.2,3.08-1.2c1.33,0,2.33,0.4,3.01,1.2c0.68,0.8,0.95,1.83,0.79,3.09l-1.48,14.66
	c-0.19,1.58-0.96,2.36-2.32,2.36c-1.45,0-2.26-0.78-2.41-2.36l-1.49-14.66C109.46,25.38,109.73,24.35,110.43,23.55z M116.41,52.15
	c-0.7,0.69-1.66,1.03-2.9,1.03c-1.24,0-2.22-0.34-2.95-1.03c-0.72-0.69-1.09-1.57-1.09-2.66c0-1.06,0.37-1.92,1.09-2.59
	c0.73-0.67,1.71-1.01,2.95-1.01c1.24,0,2.2,0.34,2.9,1.01c0.69,0.67,1.04,1.53,1.04,2.59C117.45,50.58,117.1,51.46,116.41,52.15z"/>
<path class="st0" d="M141.7,55.29c-3.5,0-5.24-1.77-5.24-5.31V25.49c0-3.5,1.7-5.24,5.11-5.24c3.4,0,5.11,1.75,5.11,5.24v0.21
	c1.01-1.75,2.4-3.12,4.17-4.11c1.77-0.99,3.83-1.48,6.18-1.48c2.39,0,4.43,0.53,6.11,1.59c1.68,1.06,2.96,2.67,3.83,4.83
	c1.06-2.02,2.59-3.6,4.59-4.73c2-1.13,4.22-1.69,6.66-1.69c3.87,0,6.74,1.16,8.63,3.48c1.89,2.32,2.83,5.9,2.83,10.73v15.66
	c0,1.7-0.45,3.01-1.35,3.93c-0.9,0.92-2.17,1.38-3.83,1.38c-3.5,0-5.24-1.77-5.24-5.31V34.66c0-2.25-0.36-3.9-1.07-4.93
	c-0.71-1.04-1.92-1.55-3.62-1.55c-1.98,0-3.52,0.69-4.62,2.07c-1.1,1.38-1.66,3.34-1.66,5.86v13.87c0,3.54-1.72,5.31-5.17,5.31
	c-1.66,0-2.95-0.46-3.86-1.38c-0.92-0.92-1.38-2.23-1.38-3.93V34.66c0-2.25-0.37-3.9-1.1-4.93c-0.74-1.04-1.93-1.55-3.59-1.55
	c-1.98,0-3.52,0.69-4.62,2.07c-1.1,1.38-1.66,3.34-1.66,5.86v13.87C146.87,53.52,145.15,55.29,141.7,55.29z"/>
<path class="st0" d="M206.11,55.43c-2.53,0-4.76-0.48-6.69-1.45c-1.93-0.97-3.46-2.28-4.59-3.93c-1.13-1.66-1.69-3.52-1.69-5.59
	c0-2.44,0.64-4.39,1.93-5.87c1.29-1.47,3.38-2.52,6.28-3.14c2.9-0.62,6.74-0.93,11.52-0.93h2.48v-1.17c0-2.02-0.46-3.46-1.38-4.31
	c-0.92-0.85-2.48-1.28-4.69-1.28c-1.24,0-2.6,0.15-4.07,0.45c-1.47,0.3-3.06,0.79-4.76,1.48c-1.29,0.55-2.37,0.59-3.24,0.1
	s-1.45-1.22-1.72-2.21c-0.28-0.99-0.2-1.99,0.24-3c0.44-1.01,1.3-1.75,2.59-2.21c2.16-0.83,4.2-1.41,6.11-1.76
	c1.91-0.35,3.67-0.52,5.28-0.52c5.24,0,9.15,1.18,11.73,3.55c2.58,2.37,3.86,6.04,3.86,11.01v15.32c0,3.54-1.61,5.31-4.83,5.31
	c-3.27,0-4.9-1.77-4.9-5.31v-0.41c-0.69,1.79-1.85,3.22-3.48,4.28C210.45,54.9,208.46,55.43,206.11,55.43z M208.46,48.46
	c1.93,0,3.56-0.67,4.9-2c1.33-1.33,2-3.06,2-5.18v-1.38h-2.42c-3.54,0-6.05,0.31-7.52,0.93c-1.47,0.62-2.21,1.69-2.21,3.21
	c0,1.29,0.45,2.35,1.35,3.17C205.46,48.05,206.76,48.46,208.46,48.46z"/>
<path class="st0" d="M243.3,55.43c-8.14,0-12.21-4.53-12.21-13.59V10.72c0-3.54,1.75-5.31,5.24-5.31c3.45,0,5.17,1.77,5.17,5.31
	v30.71c0,1.89,0.4,3.28,1.21,4.17c0.8,0.9,1.87,1.35,3.21,1.35c0.37,0,0.72-0.02,1.07-0.07c0.35-0.05,0.68-0.07,1-0.07
	c0.74-0.04,1.25,0.18,1.55,0.69c0.3,0.51,0.45,1.54,0.45,3.1c0,2.67-1.13,4.19-3.38,4.55c-0.46,0.05-0.99,0.1-1.59,0.17
	C244.43,55.4,243.86,55.43,243.3,55.43z"/>
<path class="st0" d="M261.35,67.71c-1.84,0-3.14-0.68-3.9-2.04c-0.76-1.36-0.72-2.93,0.1-4.73l3.66-8.14L249.96,27
	c-0.74-1.79-0.72-3.37,0.03-4.73c0.76-1.36,2.29-2.04,4.59-2.04c1.24,0,2.24,0.29,3,0.86c0.76,0.58,1.46,1.67,2.1,3.28l7.04,17.94
	l7.31-18.01c0.64-1.56,1.37-2.63,2.17-3.21c0.8-0.57,1.9-0.86,3.28-0.86c1.75,0,2.98,0.68,3.69,2.04c0.71,1.36,0.68,2.91-0.1,4.66
	l-16.22,36.78c-0.69,1.56-1.46,2.62-2.31,3.17S262.63,67.71,261.35,67.71z"/>
<path class="st0" d="M293.83,54.67c-3.73,0-5.59-1.86-5.59-5.59V11.62c0-3.73,1.86-5.59,5.59-5.59h13.46c8.28,0,14.7,2.1,19.25,6.31
	c4.55,4.21,6.83,10.2,6.83,17.97c0,7.77-2.28,13.78-6.83,18.01c-4.55,4.23-10.97,6.35-19.25,6.35H293.83z M298.93,45.91h7.73
	c10.35,0,15.53-5.2,15.53-15.59c0-10.35-5.17-15.52-15.53-15.52h-7.73V45.91z"/>
<path class="st0" d="M355.34,55.43c-4,0-7.44-0.72-10.32-2.17c-2.88-1.45-5.08-3.5-6.62-6.14c-1.54-2.64-2.31-5.76-2.31-9.35
	c0-3.5,0.75-6.57,2.24-9.21c1.5-2.64,3.54-4.71,6.14-6.21c2.6-1.49,5.6-2.24,9-2.24c4.92,0,8.83,1.55,11.73,4.66
	c2.9,3.1,4.35,7.3,4.35,12.59c0,1.75-1.08,2.62-3.24,2.62h-20.29c0.37,2.67,1.34,4.61,2.93,5.83c1.59,1.22,3.78,1.83,6.59,1.83
	c1.1,0,2.36-0.13,3.76-0.38c1.4-0.25,2.75-0.7,4.04-1.35c1.33-0.64,2.46-0.77,3.38-0.38c0.92,0.39,1.55,1.05,1.9,1.97
	c0.35,0.92,0.35,1.88,0,2.86c-0.34,0.99-1.12,1.81-2.31,2.45c-1.61,0.87-3.39,1.53-5.35,1.97
	C359.01,55.21,357.14,55.43,355.34,55.43z M353.89,27c-2.21,0-3.99,0.67-5.35,2c-1.36,1.33-2.2,3.2-2.52,5.59h14.9
	C360.65,29.53,358.31,27,353.89,27z"/>
<path class="st0" d="M392.05,55.43c-9.52,0-14.28-4.62-14.28-13.87V28.59h-2.9c-2.71,0-4.07-1.29-4.07-3.86
	c0-2.62,1.36-3.93,4.07-3.93h2.9v-5.24c0-3.54,1.75-5.31,5.24-5.31c3.45,0,5.18,1.77,5.18,5.31v5.24h6.55c2.67,0,4,1.31,4,3.93
	c0,2.58-1.33,3.86-4,3.86h-6.55v12.56c0,1.93,0.45,3.38,1.34,4.35c0.9,0.97,2.33,1.45,4.31,1.45c0.69,0,1.33-0.07,1.93-0.21
	c0.6-0.14,1.15-0.23,1.66-0.28c0.64-0.04,1.17,0.16,1.59,0.62c0.41,0.46,0.62,1.4,0.62,2.83c0,1.15-0.18,2.13-0.55,2.93
	c-0.37,0.81-1.01,1.39-1.93,1.76c-0.6,0.23-1.42,0.42-2.45,0.59C393.67,55.35,392.78,55.43,392.05,55.43z"/>
<path class="st0" d="M420.55,55.43c-4,0-7.44-0.72-10.32-2.17c-2.88-1.45-5.08-3.5-6.62-6.14c-1.54-2.64-2.31-5.76-2.31-9.35
	c0-3.5,0.75-6.57,2.24-9.21c1.5-2.64,3.54-4.71,6.14-6.21c2.6-1.49,5.6-2.24,9-2.24c4.92,0,8.83,1.55,11.73,4.66
	c2.9,3.1,4.35,7.3,4.35,12.59c0,1.75-1.08,2.62-3.24,2.62h-20.29c0.37,2.67,1.34,4.61,2.93,5.83c1.59,1.22,3.78,1.83,6.59,1.83
	c1.1,0,2.36-0.13,3.76-0.38c1.4-0.25,2.75-0.7,4.04-1.35c1.33-0.64,2.46-0.77,3.38-0.38c0.92,0.39,1.55,1.05,1.9,1.97
	c0.35,0.92,0.35,1.88,0,2.86c-0.34,0.99-1.12,1.81-2.31,2.45c-1.61,0.87-3.39,1.53-5.35,1.97
	C424.21,55.21,422.34,55.43,420.55,55.43z M419.1,27c-2.21,0-3.99,0.67-5.35,2c-1.36,1.33-2.2,3.2-2.52,5.59h14.9
	C425.86,29.53,423.51,27,419.1,27z"/>
<path class="st0" d="M457.32,55.43c-3.68,0-6.89-0.72-9.63-2.17c-2.74-1.45-4.84-3.51-6.31-6.18c-1.47-2.67-2.21-5.82-2.21-9.45
	c0-3.63,0.74-6.76,2.21-9.38c1.47-2.62,3.58-4.63,6.31-6.04c2.74-1.4,5.95-2.1,9.63-2.1c1.42,0,2.96,0.17,4.59,0.52
	c1.63,0.34,3.21,0.93,4.73,1.76c1.15,0.55,1.86,1.32,2.14,2.31c0.28,0.99,0.22,1.97-0.17,2.93c-0.39,0.97-1.01,1.67-1.86,2.1
	c-0.85,0.44-1.85,0.36-3-0.24c-1.84-0.97-3.63-1.45-5.38-1.45c-2.71,0-4.82,0.84-6.31,2.52c-1.5,1.68-2.24,4.06-2.24,7.14
	c0,3.04,0.75,5.42,2.24,7.14c1.49,1.72,3.6,2.59,6.31,2.59c0.83,0,1.7-0.1,2.62-0.31c0.92-0.21,1.84-0.56,2.76-1.07
	c1.15-0.6,2.15-0.67,3-0.21c0.85,0.46,1.44,1.16,1.76,2.1c0.32,0.94,0.34,1.92,0.07,2.93c-0.28,1.01-0.97,1.79-2.07,2.35
	c-1.56,0.78-3.13,1.35-4.69,1.69C460.24,55.26,458.75,55.43,457.32,55.43z"/>
<path class="st0" d="M493.65,55.43c-9.52,0-14.28-4.62-14.28-13.87V28.59h-2.9c-2.71,0-4.07-1.29-4.07-3.86
	c0-2.62,1.36-3.93,4.07-3.93h2.9v-5.24c0-3.54,1.75-5.31,5.24-5.31c3.45,0,5.17,1.77,5.17,5.31v5.24h6.56c2.67,0,4,1.31,4,3.93
	c0,2.58-1.33,3.86-4,3.86h-6.56v12.56c0,1.93,0.45,3.38,1.35,4.35c0.9,0.97,2.33,1.45,4.31,1.45c0.69,0,1.33-0.07,1.93-0.21
	c0.6-0.14,1.15-0.23,1.66-0.28c0.64-0.04,1.17,0.16,1.59,0.62c0.41,0.46,0.62,1.4,0.62,2.83c0,1.15-0.18,2.13-0.55,2.93
	c-0.37,0.81-1.01,1.39-1.93,1.76c-0.6,0.23-1.42,0.42-2.45,0.59C495.27,55.35,494.39,55.43,493.65,55.43z"/>
<path class="st0" d="M521.81,53.38c-0.73,0.03-1.35,0.53-1.56,1.23c-0.87,2.93-3.09,10.45-4.01,13.89
	c-0.26,0.98-1.26,1.58-2.25,1.34l-2.08-0.5c-1.2-0.29-1.93-1.49-1.62-2.68l3.33-13.18c0.2-0.79-0.19-1.61-0.93-1.96
	c-0.21-0.1-0.41-0.2-0.56-0.28c-2.69-1.45-4.77-3.5-6.25-6.14c-1.47-2.64-2.21-5.78-2.21-9.42c0-3.59,0.74-6.7,2.21-9.35
	c1.47-2.64,3.55-4.68,6.25-6.11c2.69-1.43,5.85-2.14,9.49-2.14c3.63,0,6.8,0.71,9.49,2.14c2.69,1.43,4.78,3.46,6.28,6.11
	c1.49,2.65,2.24,5.76,2.24,9.35c0,3.63-0.75,6.77-2.24,9.42c-1.5,2.65-3.59,4.69-6.28,6.14C528.7,52.52,525.13,53.24,521.81,53.38z
	 M521.53,47.6c3.21,0,5.83-0.94,7.87-2.81c2.04-1.87,3.06-4.79,3.06-8.75c0-3.91-1.02-6.78-3.06-8.63
	c-2.04-1.85-4.66-2.77-7.87-2.77s-5.82,0.92-7.82,2.77c-2.01,1.85-3.01,4.72-3.01,8.63c0,3.96,1,6.88,3.01,8.75
	C515.71,46.67,518.32,47.6,521.53,47.6z"/>
<path class="st0" d="M549.57,55.29c-3.59,0-5.38-1.77-5.38-5.31v-24.5c0-3.5,1.7-5.24,5.11-5.24c3.4,0,5.11,1.75,5.11,5.24v1.24
	c1.66-4.09,5.08-6.3,10.28-6.62c1.15-0.09,2.04,0.2,2.66,0.86c0.62,0.67,0.95,1.76,1,3.28c0.09,1.43-0.2,2.55-0.86,3.38
	c-0.67,0.83-1.78,1.33-3.35,1.52l-1.59,0.14c-5.15,0.51-7.73,3.13-7.73,7.87v12.83C554.82,53.52,553.07,55.29,549.57,55.29z"/>
<g>
	<path class="st0" d="M520.45,39.6c-0.38-0.1-0.65-0.3-0.8-0.61c-0.15-0.31-0.17-0.69-0.06-1.13c0.19-0.76,0.51-1.43,0.95-2.01
		c0.44-0.58,1.1-1.16,1.96-1.72c0.62-0.41,1.08-0.77,1.36-1.1c0.29-0.33,0.48-0.7,0.59-1.1c0.13-0.49,0.04-0.93-0.24-1.3
		c-0.29-0.37-0.76-0.64-1.42-0.81c-0.63-0.16-1.22-0.23-1.8-0.2c-0.57,0.02-1.15,0.12-1.73,0.29c-0.65,0.15-1.16,0.11-1.52-0.15
		c-0.36-0.25-0.57-0.6-0.64-1.05c-0.06-0.45,0.05-0.88,0.33-1.3c0.28-0.42,0.74-0.71,1.38-0.89c0.82-0.22,1.68-0.34,2.6-0.34
		c0.92,0,1.76,0.09,2.52,0.29c1.15,0.29,2.11,0.74,2.88,1.34c0.77,0.6,1.31,1.3,1.62,2.1c0.31,0.8,0.35,1.65,0.12,2.55
		c-0.21,0.81-0.57,1.51-1.1,2.11c-0.53,0.6-1.35,1.16-2.44,1.69c-0.99,0.48-1.7,0.92-2.12,1.33c-0.42,0.41-0.74,0.88-0.97,1.4
		c-0.12,0.27-0.31,0.46-0.55,0.58C521.15,39.68,520.83,39.69,520.45,39.6z M518.91,45.48c-0.7-0.18-1.19-0.53-1.5-1.05
		c-0.3-0.53-0.37-1.12-0.2-1.79c0.17-0.65,0.5-1.13,1.02-1.44c0.51-0.31,1.12-0.38,1.81-0.2c0.7,0.18,1.19,0.52,1.47,1.03
		c0.29,0.51,0.35,1.1,0.18,1.75c-0.17,0.67-0.5,1.17-1,1.49C520.2,45.58,519.6,45.65,518.91,45.48z"/>
</g>
</svg>
